<mxfile host="app.diagrams.net" agent="Mozilla/5.0 (Macintosh; Intel Mac OS X 10_15_7) AppleWebKit/605.1.15 (KHTML, like Gecko) Version/17.5 Safari/605.1.15" version="24.7.6">
  <diagram name="Page-1" id="qrscLivx81F9nEgd-OLj">
    <mxGraphModel dx="1570" dy="934" grid="1" gridSize="10" guides="1" tooltips="1" connect="1" arrows="1" fold="1" page="1" pageScale="1" pageWidth="827" pageHeight="1169" math="0" shadow="0">
      <root>
        <mxCell id="0" />
        <mxCell id="1" parent="0" />
        <mxCell id="dMBOEMHjV4ZYNjpNmo1V-1" value="" style="rounded=0;whiteSpace=wrap;html=1;" vertex="1" parent="1">
          <mxGeometry x="380" y="240" width="790" height="360" as="geometry" />
        </mxCell>
        <mxCell id="dMBOEMHjV4ZYNjpNmo1V-2" value="" style="rounded=0;whiteSpace=wrap;html=1;fillColor=#dae8fc;strokeColor=#6c8ebf;" vertex="1" parent="1">
          <mxGeometry x="590" y="260" width="220" height="40" as="geometry" />
        </mxCell>
        <mxCell id="dMBOEMHjV4ZYNjpNmo1V-3" value="&lt;h1 style=&quot;margin-top: 0px;&quot;&gt;&amp;nbsp;Current Date&amp;nbsp;&lt;/h1&gt;" style="text;html=1;whiteSpace=wrap;overflow=hidden;rounded=0;" vertex="1" parent="1">
          <mxGeometry x="390" y="260" width="180" height="40" as="geometry" />
        </mxCell>
        <mxCell id="dMBOEMHjV4ZYNjpNmo1V-4" value="" style="rounded=0;whiteSpace=wrap;html=1;fillColor=#dae8fc;strokeColor=#6c8ebf;" vertex="1" parent="1">
          <mxGeometry x="590" y="310" width="220" height="40" as="geometry" />
        </mxCell>
        <mxCell id="dMBOEMHjV4ZYNjpNmo1V-5" value="&lt;h1 style=&quot;margin-top: 0px;&quot;&gt;&amp;nbsp;Previous Date&amp;nbsp;&lt;/h1&gt;" style="text;html=1;whiteSpace=wrap;overflow=hidden;rounded=0;" vertex="1" parent="1">
          <mxGeometry x="390" y="310" width="190" height="40" as="geometry" />
        </mxCell>
        <mxCell id="dMBOEMHjV4ZYNjpNmo1V-6" value="Browse ILM Report (Current)" style="rounded=0;whiteSpace=wrap;html=1;fillColor=#d5e8d4;strokeColor=#82b366;" vertex="1" parent="1">
          <mxGeometry x="827" y="260" width="323" height="40" as="geometry" />
        </mxCell>
        <mxCell id="dMBOEMHjV4ZYNjpNmo1V-9" value="Browse ILM Report (Previous)" style="rounded=0;whiteSpace=wrap;html=1;fillColor=#d5e8d4;strokeColor=#82b366;" vertex="1" parent="1">
          <mxGeometry x="827" y="310" width="323" height="40" as="geometry" />
        </mxCell>
        <mxCell id="dMBOEMHjV4ZYNjpNmo1V-10" value="&lt;font style=&quot;font-size: 17px;&quot;&gt;Choose Criteria&lt;/font&gt;" style="rounded=0;whiteSpace=wrap;html=1;fillColor=#e1d5e7;strokeColor=#9673a6;" vertex="1" parent="1">
          <mxGeometry x="590" y="370" width="560" height="40" as="geometry" />
        </mxCell>
        <mxCell id="dMBOEMHjV4ZYNjpNmo1V-12" value="&lt;h1 style=&quot;margin-top: 0px;&quot;&gt;&lt;font style=&quot;font-size: 24px;&quot;&gt;Choose Criteria :&lt;/font&gt;&lt;/h1&gt;" style="text;html=1;whiteSpace=wrap;overflow=hidden;rounded=0;" vertex="1" parent="1">
          <mxGeometry x="395" y="370" width="195" height="40" as="geometry" />
        </mxCell>
        <mxCell id="dMBOEMHjV4ZYNjpNmo1V-13" value="&lt;font style=&quot;font-size: 18px;&quot;&gt;Edit&lt;/font&gt;" style="rounded=0;whiteSpace=wrap;html=1;fillColor=#fad9d5;strokeColor=#ae4132;" vertex="1" parent="1">
          <mxGeometry x="395" y="430" width="235" height="40" as="geometry" />
        </mxCell>
        <mxCell id="dMBOEMHjV4ZYNjpNmo1V-14" value="&lt;font style=&quot;font-size: 18px;&quot;&gt;Commentary Template&lt;/font&gt;" style="rounded=0;whiteSpace=wrap;html=1;fillColor=#fad9d5;strokeColor=#ae4132;" vertex="1" parent="1">
          <mxGeometry x="640" y="430" width="280" height="40" as="geometry" />
        </mxCell>
        <mxCell id="dMBOEMHjV4ZYNjpNmo1V-15" value="&lt;font style=&quot;font-size: 18px;&quot;&gt;Pivots&lt;/font&gt;" style="rounded=0;whiteSpace=wrap;html=1;fillColor=#fad9d5;strokeColor=#ae4132;" vertex="1" parent="1">
          <mxGeometry x="930" y="430" width="220" height="40" as="geometry" />
        </mxCell>
        <mxCell id="dMBOEMHjV4ZYNjpNmo1V-16" value="&lt;font style=&quot;font-size: 18px;&quot;&gt;See Variances&lt;/font&gt;" style="rounded=0;whiteSpace=wrap;html=1;fillColor=#fad7ac;strokeColor=#b46504;" vertex="1" parent="1">
          <mxGeometry x="395" y="480" width="755" height="40" as="geometry" />
        </mxCell>
        <mxCell id="dMBOEMHjV4ZYNjpNmo1V-17" value="&lt;font style=&quot;font-size: 18px;&quot;&gt;Run&lt;/font&gt;" style="rounded=0;whiteSpace=wrap;html=1;fillColor=#fad7ac;strokeColor=#b46504;" vertex="1" parent="1">
          <mxGeometry x="395" y="530" width="755" height="50" as="geometry" />
        </mxCell>
      </root>
    </mxGraphModel>
  </diagram>
</mxfile>
